<?xml version="1.0" encoding="UTF-8" standalone="no"?>
<svg
   xmlns:osb="http://www.openswatchbook.org/uri/2009/osb"
   xmlns:dc="http://purl.org/dc/elements/1.1/"
   xmlns:cc="http://creativecommons.org/ns#"
   xmlns:rdf="http://www.w3.org/1999/02/22-rdf-syntax-ns#"
   xmlns:svg="http://www.w3.org/2000/svg"
   xmlns="http://www.w3.org/2000/svg"
   xmlns:xlink="http://www.w3.org/1999/xlink"
   xmlns:sodipodi="http://sodipodi.sourceforge.net/DTD/sodipodi-0.dtd"
   xmlns:inkscape="http://www.inkscape.org/namespaces/inkscape"
   viewBox="0 0 50.600204 35.604442"
   id="svg3410"
   version="1.1"
   inkscape:version="0.91 r13725"
   sodipodi:docname="trayIconScreen.svg"
   width="50.600204"
   height="35.604443">
  <metadata
     id="metadata3444">
    <rdf:RDF>
      <cc:Work
         rdf:about="">
        <dc:format>image/svg+xml</dc:format>
        <dc:type
           rdf:resource="http://purl.org/dc/dcmitype/StillImage" />
        <dc:title></dc:title>
      </cc:Work>
    </rdf:RDF>
  </metadata>
  <defs
     id="defs3442">
    <linearGradient
       id="linearGradient6046"
       osb:paint="solid">
      <stop
         style="stop-color:#000000;stop-opacity:1;"
         offset="0"
         id="stop6048" />
    </linearGradient>
    <linearGradient
       id="linearGradient6040"
       osb:paint="solid">
      <stop
         style="stop-color:#000000;stop-opacity:1;"
         offset="0"
         id="stop6042" />
    </linearGradient>
    <linearGradient
       id="linearGradient5792"
       osb:paint="gradient">
      <stop
         style="stop-color:#000000;stop-opacity:1;"
         offset="0"
         id="stop5794" />
      <stop
         style="stop-color:#000000;stop-opacity:0;"
         offset="1"
         id="stop5796" />
    </linearGradient>
    <linearGradient
       id="linearGradient5682"
       osb:paint="gradient">
      <stop
         style="stop-color:#000000;stop-opacity:1;"
         offset="0"
         id="stop5684" />
      <stop
         style="stop-color:#000000;stop-opacity:0;"
         offset="1"
         id="stop5686" />
    </linearGradient>
    <linearGradient
       inkscape:collect="always"
       xlink:href="#linearGradient6040"
       id="linearGradient6050"
       x1="735.56018"
       y1="788.95416"
       x2="838.37408"
       y2="788.95416"
       gradientUnits="userSpaceOnUse"
       gradientTransform="matrix(0.0251338,0,0,0.04543767,5.5206288,-4.5029339)" />
  </defs>
  <sodipodi:namedview
     pagecolor="#ffffff"
     bordercolor="#666666"
     borderopacity="1"
     objecttolerance="10"
     gridtolerance="10"
     guidetolerance="10"
     inkscape:pageopacity="0"
     inkscape:pageshadow="2"
     inkscape:window-width="1366"
     inkscape:window-height="709"
     id="namedview3440"
     showgrid="false"
     inkscape:zoom="8.5009949"
     inkscape:cx="23.87829"
     inkscape:cy="12.148534"
     inkscape:window-x="-4"
     inkscape:window-y="0"
     inkscape:window-maximized="1"
     inkscape:current-layer="svg3410"
     fit-margin-top="0"
     fit-margin-left="0"
     fit-margin-right="0"
     fit-margin-bottom="0" />
  <g
     id="g5715"
     transform="matrix(0.03145168,0,0,0.03145168,0.35002658,0.63314403)">
    <path
       style="fill:#000000"
       inkscape:connector-curvature="0"
       id="path3412"
       d="m 664.76732,84.982882 c -3.6193,0.11232 -7.5172,1.4493 -11.938,4.9375 -10.83,-4.1763 -21.33,-5.6271 -30.72,2.8751 -14.5,-1.8808 -19.212,2.0002 -22.782,6.5312 -3.183,-0.066 -23.819,-3.272 -33.282,10.843998 -23.781,-2.814 -31.297,13.988 -22.781,29.656 -4.8569,7.519 -9.8895,14.947 1.4688,29.281 -4.018,7.9835 -1.5274,16.644 7.9375,27.125 -2.4979,11.223 2.4121,19.141 11.219,25.312 -1.6471,15.358 14.084,24.287 18.781,27.469 1.8037,8.9487 5.5629,17.393 23.531,22.062 2.9632,13.336 13.762,15.639 24.219,18.438 -34.562,20.09 -64.201,46.523 -64,111.38 l -5.0625,9.0312 c -39.63,24.1 -75.285,101.56 -19.53,164.52 3.6419,19.708 9.7496,33.864 15.188,49.531 8.1338,63.131 61.218,92.692 75.219,96.188 20.517,15.628 42.368,30.457 71.938,40.844 27.875,28.749 58.074,39.706 88.438,39.688 0.44515,-2.8e-4 0.89853,0.005 1.3438,0 30.364,0.0189 60.562,-10.938 88.438,-39.688 29.569,-10.387 51.421,-25.216 71.938,-40.844 14.001,-3.4959 67.08498,-33.057 75.21898,-96.188 5.4379,-15.667 11.546,-29.823 15.188,-49.531 55.754,-62.965 20.1,-140.43 -19.531,-164.53 l -5.07,-9.03 c 0.2007,-64.852 -29.43798,-91.285 -63.99998,-111.38 10.457,-2.7984 21.256,-5.1014 24.219,-18.438 17.968,-4.6698 21.72798,-13.114 23.53098,-22.062 4.6978,-3.1813 20.428,-12.111 18.781,-27.469 8.8067,-6.1716 13.717,-14.09 11.219,-25.312 9.4649,-10.481 11.956,-19.141 7.9375,-27.125 11.36,-14.328 6.32,-21.756 1.47,-29.275 8.51,-15.668 1,-32.47 -22.79,-29.656 -9.46,-14.115998 -30.08998,-10.909998 -33.27998,-10.843998 -3.57,-4.531 -8.28,-8.412 -22.78,-6.5312 -9.39,-8.5022 -19.89,-7.0514 -30.72,-2.875 -12.86,-10.148 -21.37,-2.0133 -31.09,1.0624 -15.57,-5.0877 -19.13,1.881 -26.78,4.7188 -16.98,-3.5881 -22.14,4.224 -30.28,12.468998 l -9.4688,-0.1875 c -25.611,15.093 -38.334,45.826 -42.844,61.625 -4.5121,-15.802 -17.206,-46.535 -42.812,-61.625 l -9.4688,0.1875 c -8.15,-8.244998 -13.31,-16.056998 -30.29,-12.468998 -7.65,-2.8378 -11.2,-9.8065 -26.78,-4.7188 -6.3797,-2.0185 -12.247,-6.2144 -19.156,-6 z" />
    <path
       style="fill:#75a928"
       inkscape:connector-curvature="0"
       id="path3414"
       d="m 613.77732,151.38268 c 67.948,35.031 107.45,63.369 129.09,87.504 -11.082,44.418 -68.896,46.445 -90.036,45.199 4.3284,-2.0147 7.9399,-4.4278 9.2205,-8.1357 -5.3045,-3.7698 -24.113,-0.39719 -37.244,-7.7742 5.0441,-1.045 7.4035,-2.063 9.7629,-5.7854 -12.406,-3.9567 -25.769,-7.3664 -33.628,-13.921 4.2413,0.0524 8.2012,0.9488 13.74,-2.8927 -11.112,-5.9882 -22.969,-10.734 -32.181,-19.887 5.7452,-0.14063 11.939,-0.0568 13.74,-2.1695 -10.17,-6.3007 -18.751,-13.308 -25.854,-20.972 8.04,0.97052 11.435,0.13478 13.379,-1.2656 -7.6878,-7.8742 -17.418,-14.523 -22.057,-24.226 5.9696,2.0575 11.431,2.8451 15.368,-0.1808 -2.6124,-5.8935 -13.805,-9.3696 -20.249,-23.142 6.2844,0.60938 12.95,1.3711 14.283,0 -2.917,-11.884 -7.922,-18.565 -12.831,-25.487 13.45,-0.2 33.828,0.052 32.905,-1.085 l -8.3165,-8.4973 c 13.138,-3.5372 26.581,0.56816 36.34,3.6159 4.3819,-3.4577 -0.0776,-7.83 -5.4238,-12.294 11.165,1.4906 21.254,4.0574 30.373,7.5934 4.8724,-4.3993 -3.1639,-8.7987 -7.051,-13.198 17.249,3.2726 24.557,7.8707 31.82,12.475 5.2694,-5.0508 0.30166,-9.3433 -3.2543,-13.74 13.006,4.817 19.705,11.036 26.758,17.175 2.3912,-3.2271 6.0749,-5.5924 1.6272,-13.379 9.2342,5.3227 16.189,11.595 21.334,18.622 5.7134,-3.6379 3.4039,-8.613 3.4351,-13.198 9.5966,7.8065 15.687,16.114 23.142,24.226 1.5017,-1.0934 2.8166,-4.8017 3.9775,-10.667 22.895,22.212 55.246,78.158 8.3165,100.34 -39.94,-32.94 -87.64,-56.883 -140.5,-74.844 z" />
    <path
       style="fill:#75a928"
       inkscape:connector-curvature="0"
       id="path3416"
       d="m 974.30732,151.38268 c -67.94,35.034 -107.44,63.364 -129.08,87.504 11.082,44.418 68.896,46.445 90.036,45.199 -4.3284,-2.0147 -7.9399,-4.4278 -9.2205,-8.1357 5.3045,-3.7698 24.113,-0.39719 37.244,-7.7742 -5.0441,-1.045 -7.4035,-2.063 -9.7629,-5.7854 12.406,-3.9567 25.769,-7.3664 33.628,-13.921 -4.2413,0.0524 -8.2012,0.9488 -13.74,-2.8927 11.112,-5.9882 22.969,-10.734 32.18098,-19.887 -5.74518,-0.14063 -11.93898,-0.0568 -13.73998,-2.1695 10.16998,-6.3007 18.75098,-13.308 25.85398,-20.972 -8.04,0.97052 -11.435,0.13478 -13.379,-1.2656 7.6878,-7.8742 17.418,-14.523 22.057,-24.226 -5.9696,2.0575 -11.431,2.8451 -15.368,-0.1808 2.6124,-5.8935 13.805,-9.3696 20.249,-23.142 -6.2844,0.60938 -12.95,1.3711 -14.283,0 2.9223,-11.889 7.9275,-18.57 12.836,-25.492 -13.45,-0.19973 -33.82798,0.0524 -32.90498,-1.0848 l 8.31648,-8.4973 c -13.13798,-3.5372 -26.58098,0.56816 -36.33998,3.6159 -4.3819,-3.4577 0.0776,-7.83 5.4238,-12.294 -11.165,1.4906 -21.254,4.0574 -30.373,7.5934 -4.8724,-4.3993 3.1639,-8.7987 7.051,-13.198 -17.249,3.2726 -24.557,7.8707 -31.82,12.475 -5.2694,-5.0508 -0.30166,-9.3433 3.2543,-13.74 -13.006,4.817 -19.705,11.036 -26.758,17.175 -2.3912,-3.2271 -6.0749,-5.5924 -1.6272,-13.379 -9.2342,5.3227 -16.189,11.595 -21.334,18.622 -5.7134,-3.6379 -3.4039,-8.613 -3.4351,-13.198 -9.5966,7.8065 -15.687,16.114 -23.142,24.226 -1.5017,-1.0934 -2.8166,-4.8017 -3.9775,-10.667 -22.895,22.212 -55.246,78.158 -8.3165,100.34 39.919,-32.947 87.616,-56.888 140.48,-74.849 z" />
    <path
       style="fill:#bc1142"
       inkscape:connector-curvature="0"
       id="path3418"
       d="m 876.32846,603.68843 a 81.389935,75.051403 0 1 1 -162.77761,0 81.389935,75.051403 0 1 1 162.77761,0 z" />
    <path
       style="fill:#bc1142"
       inkscape:connector-curvature="0"
       id="path3420"
       d="M 747.84555,389.29337 A 72.998843,86.129678 34.034226 1 1 652.87771,533.00564 72.998843,86.129678 34.034226 0 1 747.84555,389.29337 Z" />
    <path
       style="fill:#bc1142"
       inkscape:connector-curvature="0"
       id="path3422"
       d="M 838.86931,385.29337 A 86.129678,72.998843 55.965774 1 0 933.83715,529.00564 86.129678,72.998843 55.965774 0 0 838.86931,385.29337 Z" />
    <path
       style="fill:#bc1142"
       inkscape:connector-curvature="0"
       id="path3424"
       d="m 579.29732,425.41668 c 36.41,-9.76 12.292,150.63 -17.333,137.47 -32.587,-26.21 -43.083,-102.97 17.333,-137.47 z" />
    <path
       style="fill:#bc1142"
       inkscape:connector-curvature="0"
       id="path3426"
       d="m 1000.0673,423.41668 c -36.41398,-9.7569 -12.29198,150.64 17.333,137.48 32.587,-26.213 43.083,-102.98 -17.333,-137.48 z" />
    <path
       style="fill:#bc1142"
       inkscape:connector-curvature="0"
       id="path3428"
       d="m 876.35732,303.97668 c 62.835,-10.61 115.12,26.722 113.01,94.858 -2.0669,26.121 -136.16,-90.969 -113.01,-94.858 z" />
    <path
       style="fill:#bc1142"
       inkscape:connector-curvature="0"
       id="path3430"
       d="m 702.74732,301.97668 c -62.84,-10.61 -115.12,26.73 -113.01,94.86 2.067,26.12 136.16,-90.97 113.01,-94.86 z" />
    <path
       style="fill:#bc1142"
       inkscape:connector-curvature="0"
       id="path3432"
       d="m 793.00732,286.08668 c -37.503,-0.97548 -73.495,27.834 -73.582,44.544 -0.10462,20.304 29.651,41.093 73.837,41.62 45.123,0.32321 73.916,-16.64 74.061,-37.594 0.16484,-23.74 -41.039,-48.937 -74.317,-48.571 z" />
    <path
       style="fill:#bc1142"
       inkscape:connector-curvature="0"
       id="path3434"
       d="m 795.29732,702.44668 c 32.697,-1.4271 76.571,10.532 76.657,26.396 0.5427,15.405 -39.79,50.211 -78.826,49.538 -40.427,1.7439 -80.069,-33.116 -79.55,-45.199 -0.60506,-17.716 49.226,-31.548 81.719,-30.735 z" />
    <path
       style="fill:#bc1142"
       inkscape:connector-curvature="0"
       id="path3436"
       d="m 674.52732,608.42668 c 23.279,28.046 33.891,77.319 14.464,91.844 -18.379,11.088 -63.012,6.5216 -94.736,-39.052 -21.395,-38.242 -18.638,-77.157 -3.6159,-88.589 22.464,-13.684 57.173,4.799 83.889,35.797 z" />
    <path
       style="fill:#bc1142"
       inkscape:connector-curvature="0"
       id="path3438"
       d="m 911.40732,599.53668 c -25.187,29.502 -39.212,83.31 -20.838,100.64 17.568,13.464 64.729,11.582 99.566,-36.756 25.29598,-32.465 16.81998,-86.682 2.3708,-101.08 -21.464,-16.602 -52.277,4.6449 -81.099,37.188 z" />
  </g>
  <rect
     style="opacity:1;fill:none;fill-opacity:1;fill-rule:evenodd;stroke:#000000;stroke-width:1.31200004;stroke-linecap:butt;stroke-linejoin:miter;stroke-miterlimit:4;stroke-dasharray:none;stroke-opacity:1"
     id="rect3446"
     width="49.288204"
     height="27.501308"
     x="0.65600002"
     y="0.65600002" />
  <rect
     style="fill:url(#linearGradient6050);fill-opacity:1;stroke:#000000;stroke-width:0.6439749;stroke-miterlimit:4;stroke-dasharray:none;stroke-opacity:1"
     id="rect5737"
     width="2.1051543"
     height="6.0292778"
     x="24.247524"
     y="28.330662" />
  <rect
     style="fill:#000000;fill-opacity:1;stroke:#000000;stroke-width:0.46169183;stroke-miterlimit:4;stroke-dasharray:none;stroke-opacity:1"
     id="rect5739"
     width="21.3447"
     height="0.92084998"
     x="14.627752"
     y="34.452747" />
</svg>
